# xmcd CD database file
#
# Track frame offsets:
#	150
#	35102
#	62635
#	114614
#	148530
#	187640
#
# Disc length: 3375 seconds
#
# Revision: 0
# Processed by: cddbd v1.5.1PL0 Copyright (c) Steve Scherf et al.
# Submitted via: CDex 1.51
#
DISCID=4e0d2d06
DTITLE=Usui Yasuhiro - Elliott Sharp - Volcanic Island
DYEAR=2005
DGENRE=Jazz
TTITLE0=Ue
TTITLE1=Yusui
TTITLE2=Moqsan
TTITLE3=Zenso
TTITLE4=Mui
TTITLE5=Kazanto
EXTD=YEAR: 2005
EXTT0=
EXTT1=
EXTT2=
EXTT3=
EXTT4=
EXTT5=
PLAYORDER=
